# xmcd CD database file
#
# Track frame offsets:
#	187
#	11137
#	22640
#	35335
#	48670
#	60912
#	71810
#	83010
#	96955
#	109117
#
# Disc length: 1638 seconds
#
# Revision: 1
# Processed by: cddbd v1.5PL3 Copyright (c) Steve Scherf et al.
# Submitted via: CDex 1.51
#
DISCID=7506640a
DTITLE=George Strait - Strait Country
DYEAR=1981
DGENRE=Country
TTITLE0=Unwound
TTITLE1=Honky Tonk Down Stairs
TTITLE2=Blame It On Mexico
TTITLE3=If You're Thinking You Want A Stranger (There's One Coming Home)
TTITLE4=I Get Along With You
TTITLE5=Down And Out
TTITLE6=Friday Night Fever
TTITLE7=Every Time You Throw Dirt On Her (You Lose A Little Ground)
TTITLE8=She's Playing Hell Trying To Get Me To Heaven
TTITLE9=Her Goodbye Hit Me In The Heart
EXTD=YEAR: 1981
EXTT0=
EXTT1=
EXTT2=
EXTT3=
EXTT4=
EXTT5=
EXTT6=
EXTT7=
EXTT8=
EXTT9=
PLAYORDER=
